<svg xmlns="http://www.w3.org/2000/svg" xmlns:xlink="http://www.w3.org/1999/xlink" width="851" zoomAndPan="magnify" viewBox="0 0 638.25 236.249991" height="315" preserveAspectRatio="xMidYMid meet" version="1.0"><defs><g/><clipPath id="0716ec5f59"><path d="M 4.617188 74.75 L 633 74.75 L 633 145.402344 L 4.617188 145.402344 Z M 4.617188 74.75 " clip-rule="nonzero"/></clipPath><clipPath id="6d198cd82f"><path d="M 15.832031 74.75 L 621.671875 74.75 C 627.863281 74.75 632.886719 79.773438 632.886719 85.964844 L 632.886719 134.1875 C 632.886719 140.382812 627.863281 145.402344 621.671875 145.402344 L 15.832031 145.402344 C 9.636719 145.402344 4.617188 140.382812 4.617188 134.1875 L 4.617188 85.964844 C 4.617188 79.773438 9.636719 74.75 15.832031 74.75 Z M 15.832031 74.75 " clip-rule="nonzero"/></clipPath></defs><g clip-path="url(#0716ec5f59)"><g clip-path="url(#6d198cd82f)"><path fill="#000000" d="M 4.617188 74.75 L 633.023438 74.75 L 633.023438 145.402344 L 4.617188 145.402344 Z M 4.617188 74.75 " fill-opacity="1" fill-rule="nonzero"/></g></g><g fill="#ffffff" fill-opacity="1"><g transform="translate(17.533921, 135.526437)"><g><path d="M 4.0625 -42.59375 L 12.921875 -42.59375 L 12.921875 -26.640625 L 32.46875 -26.640625 L 32.46875 -42.59375 L 41.328125 -42.59375 L 41.328125 0 L 32.46875 0 L 32.46875 -18.6875 L 12.921875 -18.6875 L 12.921875 0 L 4.0625 0 Z M 4.0625 -42.59375 "/></g></g></g><g fill="#ffffff" fill-opacity="1"><g transform="translate(70.932765, 135.526437)"><g><path d="M 34.984375 0 L 32.1875 -5.71875 L 11.546875 -5.71875 L 8.796875 0 L -0.34375 0 L 22.125 -43.34375 L 44.65625 0 Z M 21.78125 -26.984375 L 15.375 -13.71875 L 28.296875 -13.71875 Z M 21.78125 -26.984375 "/></g></g></g><g fill="#ffffff" fill-opacity="1"><g transform="translate(123.245375, 135.526437)"><g><path d="M 12.921875 0 L 4.0625 0 L 4.0625 -42.59375 L 18.578125 -42.59375 C 21.210938 -42.59375 23.613281 -42.101562 25.78125 -41.125 C 27.957031 -40.15625 29.832031 -38.859375 31.40625 -37.234375 C 32.988281 -35.617188 34.21875 -33.789062 35.09375 -31.75 C 35.976562 -29.71875 36.421875 -27.613281 36.421875 -25.4375 C 36.421875 -21.820312 35.628906 -18.570312 34.046875 -15.6875 C 32.460938 -12.8125 30.289062 -10.550781 27.53125 -8.90625 C 24.769531 -7.269531 21.597656 -6.453125 18.015625 -6.453125 L 12.921875 -6.453125 Z M 12.921875 -14.515625 L 17.78125 -14.515625 C 19.84375 -14.515625 21.585938 -14.960938 23.015625 -15.859375 C 24.441406 -16.753906 25.515625 -17.960938 26.234375 -19.484375 C 26.960938 -21.015625 27.328125 -22.695312 27.328125 -24.53125 C 27.328125 -26.207031 26.972656 -27.804688 26.265625 -29.328125 C 25.566406 -30.847656 24.546875 -32.101562 23.203125 -33.09375 C 21.867188 -34.09375 20.234375 -34.59375 18.296875 -34.59375 L 12.921875 -34.59375 Z M 12.921875 -14.515625 "/></g></g></g><g fill="#ffffff" fill-opacity="1"><g transform="translate(169.383626, 135.526437)"><g><path d="M 12.921875 0 L 4.0625 0 L 4.0625 -42.59375 L 18.578125 -42.59375 C 21.210938 -42.59375 23.613281 -42.101562 25.78125 -41.125 C 27.957031 -40.15625 29.832031 -38.859375 31.40625 -37.234375 C 32.988281 -35.617188 34.21875 -33.789062 35.09375 -31.75 C 35.976562 -29.71875 36.421875 -27.613281 36.421875 -25.4375 C 36.421875 -21.820312 35.628906 -18.570312 34.046875 -15.6875 C 32.460938 -12.8125 30.289062 -10.550781 27.53125 -8.90625 C 24.769531 -7.269531 21.597656 -6.453125 18.015625 -6.453125 L 12.921875 -6.453125 Z M 12.921875 -14.515625 L 17.78125 -14.515625 C 19.84375 -14.515625 21.585938 -14.960938 23.015625 -15.859375 C 24.441406 -16.753906 25.515625 -17.960938 26.234375 -19.484375 C 26.960938 -21.015625 27.328125 -22.695312 27.328125 -24.53125 C 27.328125 -26.207031 26.972656 -27.804688 26.265625 -29.328125 C 25.566406 -30.847656 24.546875 -32.101562 23.203125 -33.09375 C 21.867188 -34.09375 20.234375 -34.59375 18.296875 -34.59375 L 12.921875 -34.59375 Z M 12.921875 -14.515625 "/></g></g></g><g fill="#ffffff" fill-opacity="1"><g transform="translate(215.521866, 135.526437)"><g><path d="M 22.234375 -21.671875 L 34.703125 -42.59375 L 44.015625 -42.59375 L 26.53125 -13.71875 L 26.53125 0 L 17.71875 0 L 17.71875 -12.921875 L -0.34375 -42.59375 L 9.828125 -42.59375 Z M 22.234375 -21.671875 "/></g></g></g><g fill="#ffffff" fill-opacity="1"><g transform="translate(267.20561, 135.526437)"><g/></g></g><g fill="#ffffff" fill-opacity="1"><g transform="translate(299.280038, 135.526437)"><g><path d="M 37.15625 -18.8125 L 46.140625 -18.8125 C 45.835938 -16.0625 45.054688 -13.503906 43.796875 -11.140625 C 42.535156 -8.785156 40.914062 -6.71875 38.9375 -4.9375 C 36.957031 -3.164062 34.707031 -1.773438 32.1875 -0.765625 C 29.675781 0.242188 27.007812 0.75 24.1875 0.75 C 21.132812 0.75 18.28125 0.175781 15.625 -0.96875 C 12.976562 -2.113281 10.65625 -3.695312 8.65625 -5.71875 C 6.65625 -7.738281 5.09375 -10.070312 3.96875 -12.71875 C 2.84375 -15.363281 2.28125 -18.210938 2.28125 -21.265625 C 2.28125 -24.316406 2.84375 -27.175781 3.96875 -29.84375 C 5.09375 -32.507812 6.65625 -34.851562 8.65625 -36.875 C 10.65625 -38.894531 12.976562 -40.476562 15.625 -41.625 C 18.28125 -42.769531 21.113281 -43.34375 24.125 -43.34375 C 28.09375 -43.34375 31.742188 -42.394531 35.078125 -40.5 C 38.410156 -38.613281 41.03125 -36.109375 42.9375 -32.984375 L 36.015625 -28.078125 C 34.492188 -30.359375 32.691406 -32.0625 30.609375 -33.1875 C 28.535156 -34.3125 26.394531 -34.875 24.1875 -34.875 C 21.820312 -34.875 19.664062 -34.265625 17.71875 -33.046875 C 15.78125 -31.828125 14.238281 -30.1875 13.09375 -28.125 C 11.945312 -26.070312 11.375 -23.785156 11.375 -21.265625 C 11.375 -18.785156 11.945312 -16.515625 13.09375 -14.453125 C 14.238281 -12.398438 15.78125 -10.773438 17.71875 -9.578125 C 19.664062 -8.378906 21.820312 -7.78125 24.1875 -7.78125 C 26.320312 -7.78125 28.289062 -8.253906 30.09375 -9.203125 C 31.90625 -10.160156 33.441406 -11.46875 34.703125 -13.125 C 35.960938 -14.78125 36.78125 -16.675781 37.15625 -18.8125 Z M 37.15625 -18.8125 "/></g></g></g><g fill="#ffffff" fill-opacity="1"><g transform="translate(355.708888, 135.526437)"><g><path d="M 24.359375 0.75 C 21.304688 0.75 18.445312 0.175781 15.78125 -0.96875 C 13.113281 -2.113281 10.769531 -3.695312 8.75 -5.71875 C 6.726562 -7.738281 5.144531 -10.082031 4 -12.75 C 2.851562 -15.414062 2.28125 -18.273438 2.28125 -21.328125 C 2.28125 -24.378906 2.851562 -27.226562 4 -29.875 C 5.144531 -32.519531 6.726562 -34.851562 8.75 -36.875 C 10.769531 -38.894531 13.101562 -40.476562 15.75 -41.625 C 18.394531 -42.769531 21.242188 -43.34375 24.296875 -43.34375 C 27.347656 -43.34375 30.207031 -42.769531 32.875 -41.625 C 35.539062 -40.476562 37.882812 -38.894531 39.90625 -36.875 C 41.925781 -34.851562 43.503906 -32.519531 44.640625 -29.875 C 45.785156 -27.226562 46.359375 -24.378906 46.359375 -21.328125 C 46.359375 -18.273438 45.785156 -15.414062 44.640625 -12.75 C 43.503906 -10.082031 41.925781 -7.738281 39.90625 -5.71875 C 37.882812 -3.695312 35.546875 -2.113281 32.890625 -0.96875 C 30.242188 0.175781 27.398438 0.75 24.359375 0.75 Z M 24.296875 -34.875 C 21.898438 -34.875 19.71875 -34.265625 17.75 -33.046875 C 15.789062 -31.828125 14.238281 -30.195312 13.09375 -28.15625 C 11.945312 -26.113281 11.375 -23.835938 11.375 -21.328125 C 11.375 -18.804688 11.945312 -16.515625 13.09375 -14.453125 C 14.238281 -12.398438 15.789062 -10.773438 17.75 -9.578125 C 19.71875 -8.378906 21.921875 -7.78125 24.359375 -7.78125 C 26.753906 -7.78125 28.929688 -8.378906 30.890625 -9.578125 C 32.859375 -10.773438 34.414062 -12.398438 35.5625 -14.453125 C 36.707031 -16.515625 37.28125 -18.804688 37.28125 -21.328125 C 37.28125 -23.835938 36.695312 -26.113281 35.53125 -28.15625 C 34.363281 -30.195312 32.800781 -31.828125 30.84375 -33.046875 C 28.882812 -34.265625 26.703125 -34.875 24.296875 -34.875 Z M 24.296875 -34.875 "/></g></g></g><g fill="#ffffff" fill-opacity="1"><g transform="translate(412.36642, 135.526437)"><g><path d="M 4.0625 -42.59375 L 21.328125 -42.59375 C 24.410156 -42.59375 27.296875 -42.054688 29.984375 -40.984375 C 32.671875 -39.921875 35.035156 -38.425781 37.078125 -36.5 C 39.117188 -34.570312 40.71875 -32.320312 41.875 -29.75 C 43.039062 -27.1875 43.625 -24.378906 43.625 -21.328125 C 43.625 -18.273438 43.039062 -15.453125 41.875 -12.859375 C 40.71875 -10.265625 39.117188 -8.003906 37.078125 -6.078125 C 35.035156 -4.160156 32.671875 -2.664062 29.984375 -1.59375 C 27.296875 -0.53125 24.425781 0 21.375 0 L 4.0625 0 Z M 12.921875 -8 L 21.375 -8 C 23.851562 -8 26.082031 -8.578125 28.0625 -9.734375 C 30.050781 -10.898438 31.625 -12.484375 32.78125 -14.484375 C 33.945312 -16.492188 34.53125 -18.773438 34.53125 -21.328125 C 34.53125 -23.921875 33.945312 -26.207031 32.78125 -28.1875 C 31.625 -30.164062 30.046875 -31.726562 28.046875 -32.875 C 26.046875 -34.019531 23.804688 -34.59375 21.328125 -34.59375 L 12.921875 -34.59375 Z M 12.921875 -8 "/></g></g></g><g fill="#ffffff" fill-opacity="1"><g transform="translate(466.279812, 135.526437)"><g><path d="M 12.921875 -42.59375 L 12.921875 0 L 4.0625 0 L 4.0625 -42.59375 Z M 12.921875 -42.59375 "/></g></g></g><g fill="#ffffff" fill-opacity="1"><g transform="translate(491.265158, 135.526437)"><g><path d="M 34.359375 -17.953125 L 34.359375 -42.59375 L 43.21875 -42.59375 L 43.21875 0.75 L 12.921875 -24.46875 L 12.921875 0 L 4.0625 0 L 4.0625 -43.390625 Z M 34.359375 -17.953125 "/></g></g></g><g fill="#ffffff" fill-opacity="1"><g transform="translate(546.550597, 135.526437)"><g><path d="M 46.25 -23.265625 L 46.25 -21.953125 C 46.25 -18.828125 45.675781 -15.890625 44.53125 -13.140625 C 43.394531 -10.398438 41.816406 -7.984375 39.796875 -5.890625 C 37.773438 -3.796875 35.425781 -2.164062 32.75 -1 C 30.082031 0.164062 27.226562 0.75 24.1875 0.75 C 21.132812 0.75 18.28125 0.175781 15.625 -0.96875 C 12.976562 -2.113281 10.65625 -3.695312 8.65625 -5.71875 C 6.65625 -7.738281 5.09375 -10.070312 3.96875 -12.71875 C 2.84375 -15.363281 2.28125 -18.210938 2.28125 -21.265625 C 2.28125 -24.316406 2.84375 -27.175781 3.96875 -29.84375 C 5.09375 -32.507812 6.65625 -34.851562 8.65625 -36.875 C 10.65625 -38.894531 12.976562 -40.476562 15.625 -41.625 C 18.28125 -42.769531 21.113281 -43.34375 24.125 -43.34375 C 28.09375 -43.34375 31.742188 -42.394531 35.078125 -40.5 C 38.410156 -38.613281 41.03125 -36.109375 42.9375 -32.984375 L 35.84375 -27.84375 C 34.738281 -29.9375 33.144531 -31.628906 31.0625 -32.921875 C 28.988281 -34.222656 26.695312 -34.875 24.1875 -34.875 C 21.820312 -34.875 19.664062 -34.265625 17.71875 -33.046875 C 15.78125 -31.828125 14.238281 -30.1875 13.09375 -28.125 C 11.945312 -26.070312 11.375 -23.785156 11.375 -21.265625 C 11.375 -18.785156 11.945312 -16.515625 13.09375 -14.453125 C 14.238281 -12.398438 15.78125 -10.773438 17.71875 -9.578125 C 19.664062 -8.378906 21.820312 -7.78125 24.1875 -7.78125 C 26.78125 -7.78125 29.148438 -8.425781 31.296875 -9.71875 C 33.453125 -11.007812 35.007812 -12.894531 35.96875 -15.375 L 24.40625 -15.375 L 24.40625 -23.265625 Z M 46.25 -23.265625 "/></g></g></g><g fill="#ffffff" fill-opacity="1"><g transform="translate(602.97947, 135.526437)"><g><path d="M 12.234375 -42.59375 L 12.234375 -13.4375 L 4.75 -13.4375 L 4.75 -42.59375 Z M 8.46875 -8 C 9.800781 -8 10.875 -7.570312 11.6875 -6.71875 C 12.507812 -5.863281 12.921875 -4.828125 12.921875 -3.609375 C 12.921875 -2.421875 12.507812 -1.394531 11.6875 -0.53125 C 10.875 0.320312 9.800781 0.75 8.46875 0.75 C 7.164062 0.75 6.101562 0.320312 5.28125 -0.53125 C 4.46875 -1.394531 4.0625 -2.421875 4.0625 -3.609375 C 4.0625 -4.828125 4.46875 -5.863281 5.28125 -6.71875 C 6.101562 -7.570312 7.164062 -8 8.46875 -8 Z M 8.46875 -8 "/></g></g></g></svg>